<svg width="172" height="32" viewBox="0 0 172 32" fill="none" xmlns="http://www.w3.org/2000/svg">
    <path d="M13.226 16.397c-.429-3.902 3.664-7.031 9.134-6.989 5.474.042 10.261 3.24 10.69 7.138.429 3.907-3.659 7.031-9.134 6.989-5.475-.043-10.261-3.235-10.69-7.138zm20.846 1.208c-.493-4.84-6.005-8.8-12.305-8.853-6.307-.053-11.014 3.828-10.516 8.667.498 4.84 6.004 8.806 12.305 8.858 6.301.048 11.014-3.828 10.516-8.672z" fill="#F7BB82"/>
    <path d="M24.561 26.368c-3.102 3.245-8.085 3.516-11.13.603-3.044-2.912-2.99-7.9.117-11.14 3.103-3.24 8.09-3.51 11.125-.604 3.039 2.913 2.991 7.9-.117 11.14m-11.5-10.642c-3.606 3.77-3.664 9.568-.133 12.951 3.532 3.384 9.33 3.071 12.936-.699 3.61-3.77 3.67-9.567.132-12.95-3.532-3.384-9.324-3.072-12.935.698z" fill="#F4A051"/>
    <path d="M13.388 3.589c6.454-2.42 12.84.026 14.259 5.464 1.419 5.443-2.663 11.808-9.118 14.227-6.454 2.425-12.84-.026-14.26-5.464C2.852 12.378 6.934 6.01 13.389 3.59zm-6 2.075c-6.697 5.3-8.402 12.989-3.806 17.161 4.59 4.178 13.745 3.262 20.443-2.044 6.698-5.3 8.403-12.983 3.807-17.16C23.236-.557 14.082.359 7.39 5.664z" fill="#ED7100"/>
    <path d="M49.459 10.037v11.977h-1.875v-6.316h-7.1v6.316h-1.875V10.037h1.875v4.019h7.1v-4.019h1.875zM53.958 22.015c-.873 0-1.567-.243-2.08-.736-.52-.492-.784-1.122-.784-1.89v-.64c0-.784.26-1.42.783-1.907.509-.503 1.202-.752 2.081-.752h4.893v-.047c0-.959-.524-1.44-1.578-1.44H51.83v-1.594h5.411c1.128 0 1.986.286 2.579.858.603.55.905 1.355.905 2.409v3.171c0 .816-.275 1.456-.826 1.922-.503.43-1.202.641-2.113.641h-3.828v.005zm3.426-4.33h-2.97c-.959 0-1.44.407-1.44 1.217v.296c0 .805.476 1.202 1.44 1.202h2.97c.98 0 1.472-.402 1.472-1.201v-.297c0-.815-.492-1.218-1.472-1.218zM66.217 13.009h1.843c1.165 0 2.086.339 2.753 1.016.667.678 1 1.62 1 2.828v5.157H69.94v-5.067c0-.752-.148-1.297-.439-1.642-.365-.45-.89-.672-1.578-.672h-1.594c-.667 0-1.186.222-1.562.673-.27.344-.407.889-.407 1.64v5.068h-1.875v-5.157c0-1.207.334-2.15 1.001-2.828.667-.677 1.578-1.016 2.738-1.016h-.006zM80.462 20.813c-.667.805-1.493 1.202-2.488 1.202h-1.155c-1.043 0-1.869-.328-2.488-.985-.583-.614-.874-1.487-.874-2.61V13.01h1.859v5.427c0 .657.142 1.138.423 1.44.323.344.747.514 1.266.514h.815c.53 0 .958-.17 1.281-.514.292-.302.44-.783.44-1.44v-5.427h1.843v5.427c0 .657.142 1.138.423 1.44.323.344.747.514 1.266.514h.815c.53 0 .958-.17 1.281-.514.291-.302.44-.783.44-1.44v-5.427h1.858v5.411c0 1.128-.302 1.996-.905 2.61-.614.657-1.451.985-2.505.985h-1.143c-.97 0-1.79-.402-2.457-1.202h.005zM92.965 14.634c-.667 0-1.186.222-1.562.672-.27.344-.408.89-.408 1.641v5.068h-1.874v-12.01h1.874v3.548c.54-.365 1.165-.545 1.859-.545h1.842c1.165 0 2.087.339 2.754 1.017.667.677 1 1.62 1 2.827v5.157h-1.874v-5.067c0-.752-.148-1.297-.44-1.641-.365-.45-.889-.673-1.577-.673h-1.594v.006zM102.865 22.015c-.874 0-1.568-.243-2.081-.736-.519-.492-.784-1.122-.784-1.89v-.64c0-.784.259-1.42.784-1.907.508-.503 1.202-.752 2.081-.752h4.892v-.047c0-.959-.524-1.44-1.578-1.44h-5.443v-1.594h5.411c1.128 0 1.986.286 2.579.858.604.55.905 1.355.905 2.409v3.171c0 .816-.275 1.456-.826 1.922-.503.43-1.202.641-2.112.641h-3.828v.005zm3.425-4.33h-2.97c-.958 0-1.44.407-1.44 1.217v.296c0 .805.476 1.202 1.44 1.202h2.97c.98 0 1.472-.402 1.472-1.201v-.297c0-.815-.492-1.218-1.472-1.218zM123.453 22.014h-3.802c-1.197 0-2.113-.312-2.738-.937-.614-.604-.921-1.536-.921-2.801v-4.474c0-1.271.307-2.213.921-2.828.615-.614 1.536-.937 2.738-.937h3.802c1.196 0 2.112.313 2.737.937.625.614.937 1.557.937 2.828v4.474c0 1.26-.312 2.192-.937 2.8-.635.615-1.546.927-2.737.938zm-.127-1.625c.709 0 1.223-.202 1.546-.61.249-.343.376-.873.376-1.593v-4.284c0-.73-.127-1.265-.376-1.61-.323-.418-.837-.624-1.546-.624h-3.564c-.699 0-1.207.206-1.53.625-.238.344-.36.879-.36 1.61v4.283c0 .72.122 1.25.36 1.594.323.407.837.609 1.53.609h3.564zM138.466 22.015h-5.988c-1.117-.01-1.991-.333-2.626-.969-.636-.624-.954-1.52-.954-2.69V16.7c0-1.175.318-2.08.954-2.705.635-.636 1.509-.964 2.626-.985h5.988v1.625h-5.829c-.668 0-1.165.207-1.488.625-.239.344-.36.853-.36 1.53v1.472c0 .668.121 1.17.36 1.515.323.407.82.608 1.488.608h5.829V22.015zM149.788 15.667v.625c0 .773-.265 1.403-.8 1.89-.508.492-1.202.736-2.081.736h-4.876v.063c0 .948.524 1.425 1.578 1.425h5.755v1.61h-5.74c-1.117 0-1.975-.281-2.578-.842-.593-.551-.89-1.35-.89-2.394v-3.113c0-.784.26-1.42.784-1.906.508-.498 1.207-.752 2.097-.752h3.86c.884 0 1.583.249 2.096.752.53.492.8 1.128.8 1.906h-.005zm-6.317 1.657h2.986c.969 0 1.456-.402 1.456-1.202v-.296c0-.816-.487-1.218-1.456-1.218h-2.986c-.959 0-1.44.407-1.44 1.218v.296c0 .805.481 1.202 1.44 1.202zM154.146 22.015c-.874 0-1.567-.243-2.081-.736-.519-.492-.784-1.122-.784-1.89v-.64c0-.784.26-1.42.784-1.907.508-.503 1.202-.752 2.081-.752h4.892v-.047c0-.959-.524-1.44-1.578-1.44h-5.443v-1.594h5.412c1.127 0 1.985.286 2.578.858.604.55.906 1.355.906 2.409v3.171c0 .816-.276 1.456-.826 1.922-.503.43-1.202.641-2.113.641h-3.828v.005zm3.426-4.33h-2.971c-.958 0-1.44.407-1.44 1.217v.296c0 .805.476 1.202 1.44 1.202h2.971c.979 0 1.472-.402 1.472-1.201v-.297c0-.815-.493-1.218-1.472-1.218zM166.401 13.009h1.842c1.165 0 2.087.339 2.754 1.016.667.678 1.001 1.62 1.001 2.828v5.157h-1.875v-5.067c0-.752-.148-1.297-.439-1.642-.366-.45-.89-.672-1.578-.672h-1.594c-.667 0-1.186.222-1.562.673-.27.344-.408.889-.408 1.64v5.068h-1.874v-5.157c0-1.207.334-2.15 1.001-2.828.667-.677 1.578-1.016 2.737-1.016h-.005z" fill="#231916"/>
</svg>
