<svg width="28" height="28" viewBox="0 0 28 28" fill="none" xmlns="http://www.w3.org/2000/svg">
<path d="M10.7658 14.2218C10.4168 11.0455 13.7482 8.49842 18.2002 8.5329C22.6565 8.56737 26.5526 11.1705 26.9017 14.3425C27.2508 17.5231 23.9236 20.0659 19.4673 20.0314C15.011 19.9969 11.1149 17.3981 10.7658 14.2218ZM27.7334 15.2044C27.3326 11.2653 22.8462 8.04158 17.7175 7.99848C12.5846 7.95538 8.75317 11.1145 9.15829 15.0536C9.56341 18.9927 14.0456 22.2208 19.1742 22.2639C24.3029 22.3026 28.1386 19.1479 27.7334 15.2044Z" fill="#F7BB82"/>
<path d="M19.9925 22.3379C17.467 24.9798 13.4115 25.1996 10.9334 22.8292C8.45525 20.4588 8.49835 16.399 11.0282 13.7614C13.5537 11.1238 17.6135 10.904 20.083 13.2701C22.5569 15.6405 22.5181 19.7003 19.9882 22.3379M10.6274 13.6752C7.69243 16.7438 7.64502 21.463 10.5196 24.2169C13.3943 26.9709 18.1135 26.7166 21.0484 23.648C23.9877 20.5795 24.0351 15.8603 21.1562 13.1063C18.2816 10.3524 13.5667 10.6066 10.6274 13.6752Z" fill="#F4A051"/>
<path d="M10.8955 3.79647C16.1491 1.8269 21.3467 3.81801 22.5017 8.24416C23.6568 12.6746 20.3339 17.855 15.0803 19.8245C9.82668 21.7984 4.62909 19.803 3.47407 15.3768C2.31905 10.9507 5.64189 5.76603 10.8955 3.79647ZM6.01253 5.4859C0.560658 9.79999 -0.827086 16.0578 2.9138 19.4539C6.65038 22.8543 14.102 22.1087 19.5539 17.7903C25.0057 13.4762 26.3935 7.22274 22.6526 3.82232C18.9117 0.421908 11.4601 1.1675 6.01253 5.4859Z" fill="#ED7100"/>
</svg>
